<?xml version="1.0" encoding="utf-8"?>
<!-- Generator: Adobe Illustrator 19.0.0, SVG Export Plug-In . SVG Version: 6.00 Build 0)  -->
<svg version="1.1" id="图形" xmlns="http://www.w3.org/2000/svg" xmlns:xlink="http://www.w3.org/1999/xlink" x="0px" y="0px"
	 viewBox="15.167 -16.333 1000.636 1000.678" enable-background="new 15.167 -16.333 1000.636 1000.678" xml:space="preserve">
<g id="XMLID_423_">
	<g id="XMLID_776_">
		<path id="XMLID_883_" fill="#D16666" d="M512.381,895.194c-12.45,0-24.721-4.54-34.296-13.203l-218.94-198.303H151.677
			c-38.757,0-70.277-31.531-70.277-70.277V344.146c0-38.747,31.521-70.277,70.277-70.277h107.468l218.96-198.303
			c14.928-13.52,36.497-17.009,54.993-8.812l0,0c18.456,8.187,30.391,26.525,30.391,46.706v730.636
			c0,20.201-11.934,38.529-30.411,46.706C526.437,893.757,519.379,895.194,512.381,895.194z M151.677,324.619
			c-10.765,0-19.527,8.762-19.527,19.527v269.264c0,10.765,8.762,19.527,19.527,19.527h127.054l233.432,211.446l0.575-730.924
			l10.071-23.512l-10.289,23.194c-0.139-0.059-0.278-0.05-0.337,0.03L278.732,324.619H151.677z"/>
	</g>
	<g id="XMLID_424_">
		<g id="XMLID_775_">
			<path id="XMLID_882_" fill="#D16666" d="M691.197,631.064c-8.227,0-16.296-3.995-21.172-11.369
				c-7.751-11.677-4.54-27.427,7.137-35.159c35.664-23.621,56.955-63.15,56.955-105.763c0-42.603-21.291-82.132-56.936-105.743
				c-11.677-7.732-14.888-23.482-7.137-35.158c7.732-11.686,23.452-14.898,35.168-7.147c49.878,33.027,79.654,88.367,79.654,148.048
				c0,59.681-29.796,115.031-79.674,148.068C700.871,629.696,696.014,631.064,691.197,631.064z"/>
		</g>
		<g id="XMLID_772_">
			<path id="XMLID_861_" fill="#D16666" d="M797.376,752.984c-7.632,0-15.185-3.43-20.181-9.962
				c-8.505-11.131-6.383-27.05,4.738-35.565c72.101-55.141,113.435-138.493,113.435-228.684S854.034,305.241,781.953,250.11
				c-11.121-8.515-13.243-24.434-4.738-35.565c8.524-11.121,24.463-13.243,35.585-4.738
				c84.729,64.806,133.319,162.837,133.319,268.967S897.509,682.944,812.78,747.76C808.18,751.279,802.749,752.984,797.376,752.984z
				"/>
		</g>
	</g>
</g>
</svg>
