<?xml version="1.0" encoding="utf-8"?>
<!-- Generator: Adobe Illustrator 19.0.0, SVG Export Plug-In . SVG Version: 6.00 Build 0)  -->
<svg version="1.1" id="图形" xmlns="http://www.w3.org/2000/svg" xmlns:xlink="http://www.w3.org/1999/xlink" x="0px" y="0px"
	 viewBox="15.167 -16.333 1000.636 1000.678" enable-background="new 15.167 -16.333 1000.636 1000.678" xml:space="preserve">
<g id="XMLID_785_">
	<path id="XMLID_786_" fill="#D16666" d="M921.853,722.946c-69.583-61.674-176.377-55.211-238.011,14.373l-76.7,86.563
		c-9.298,10.487-8.326,26.525,2.161,35.823c4.837,4.282,10.844,6.383,16.831,6.383c6.998,0,13.976-2.884,18.992-8.544l76.7-86.563
		c20.776-23.442,49.581-37.399,81.121-39.302c31.62-1.883,61.812,8.485,85.245,29.251c10.487,9.288,26.485,8.346,35.823-2.161
		C933.312,748.272,932.34,732.244,921.853,722.946z"/>
	<path id="XMLID_874_" fill="#D16666" d="M343.676,737.319c-61.634-69.583-168.428-76.016-238.011-14.373
		c-10.487,9.298-11.458,25.326-2.161,35.823c9.317,10.507,25.336,11.458,35.823,2.161c23.432-20.766,54.041-31.134,85.245-29.251
		c31.541,1.903,60.345,15.859,81.121,39.302l76.7,86.563c5.016,5.66,11.994,8.544,18.992,8.544c5.987,0,11.994-2.101,16.831-6.383
		c10.487-9.298,11.458-25.336,2.161-35.823L343.676,737.319z"/>
	<path id="XMLID_877_" fill="#D16666" d="M721.052,638.098c41.036-34.435,73.231-78.98,93.075-128.809
		c15.265-38.291,23.016-78.276,23.016-118.827v-182.89c0-16.643-7.553-32.036-20.716-42.246
		c-13.223-10.239-30.093-13.728-46.23-9.545c-32.651,8.396-64.786,19.358-95.831,32.671
		c-25.435-55.26-67.779-101.114-121.385-130.861c-24.225-13.441-54.239-13.431-78.425-0.01
		c-53.625,29.756-95.97,75.61-121.404,130.87c-31.045-13.312-63.18-24.275-95.831-32.671c-16.157-4.203-33.008-0.694-46.23,9.545
		c-13.163,10.21-20.716,25.603-20.716,42.246v182.89c0,40.531,7.732,80.507,22.996,118.827
		c19.884,49.848,52.079,94.394,93.095,128.809c51.671,43.35,115.469,69.303,181.908,74.623v171.953
		c0,14.016,11.359,25.375,25.375,25.375s25.375-11.359,25.375-25.375V712.72C605.579,707.404,669.38,681.449,721.052,638.098z
		 M260.513,490.505c-12.866-32.314-19.388-65.966-19.388-100.044v-182.89c0-0.327,0-1.308,1.051-2.131
		c0.535-0.406,1.11-0.615,1.725-0.615c0.258,0,0.515,0.03,0.773,0.099c38.182,9.823,75.57,23.432,111.135,40.442l25.573,12.242
		l9.337-26.783c19.13-54.913,57.649-100.678,108.479-128.868c8.98-5.006,20.161-4.996,29.142,0.01
		c50.81,28.18,89.329,73.945,108.459,128.858l9.337,26.783l25.573-12.242c35.565-17.009,72.954-30.619,111.155-40.442
		c0.892-0.228,1.725-0.059,2.458,0.515c1.07,0.823,1.07,1.804,1.07,2.131v182.89c0,34.088-6.522,67.74-19.408,100.044
		c-16.752,42.057-43.931,79.654-78.564,108.717c-48.357,40.574-109.288,63.086-171.855,63.749c-0.969-0.113-1.818-0.569-2.818-0.569
		s-1.849,0.456-2.818,0.569c-62.547-0.663-123.478-23.175-171.835-63.749C304.464,570.17,277.304,532.573,260.513,490.505z"/>
</g>
</svg>
