<?xml version="1.0" encoding="utf-8"?>
<!-- Generator: Adobe Illustrator 17.0.0, SVG Export Plug-In . SVG Version: 6.00 Build 0)  -->
<!DOCTYPE svg PUBLIC "-//W3C//DTD SVG 1.1//EN" "http://www.w3.org/Graphics/SVG/1.1/DTD/svg11.dtd">
<svg version="1.1" id="图形" xmlns="http://www.w3.org/2000/svg" xmlns:xlink="http://www.w3.org/1999/xlink" x="0px" y="0px"
	 width="1000.636px" height="1000.678px" viewBox="15.167 -16.333 1000.636 1000.678"
	 enable-background="new 15.167 -16.333 1000.636 1000.678" xml:space="preserve">
<g>
	<g>
		<path d="M809.353,324.167H577.345v37.122h232.008V324.167z M809.353,477.305H577.345v37.122h232.008V477.305z M809.353,630.44
			H577.345v37.12h232.008V630.44z M80.929,114.882v738.834h868.457V114.882H80.929z M912.561,816.596H117.754V152.005h794.806
			V816.596z M360.859,523.354c81.902,0,148.52,67.166,148.52,149.715h36.825c0-78.125-47.817-145.188-115.494-173.048
			c28.712-21.55,47.345-56.019,47.345-94.797c0-65.143-52.575-118.132-117.196-118.132c-64.607,0-117.182,52.989-117.182,118.132
			c0,38.775,18.631,73.243,47.337,94.793c-67.682,27.857-115.503,94.923-115.503,173.051h36.825
			C212.336,590.52,278.954,523.354,360.859,523.354z M280.502,405.224c0-44.671,36.05-81.013,80.357-81.013
			c44.321,0,80.374,36.342,80.374,81.013c0,44.668-36.053,81.01-80.374,81.01C316.552,486.234,280.502,449.892,280.502,405.224z"/>
	</g>
</g>
</svg>
