<?xml version="1.0" encoding="utf-8"?>
<!-- Generator: Adobe Illustrator 19.0.0, SVG Export Plug-In . SVG Version: 6.00 Build 0)  -->
<svg version="1.1" id="图形" xmlns="http://www.w3.org/2000/svg" xmlns:xlink="http://www.w3.org/1999/xlink" x="0px" y="0px"
	 viewBox="15.167 -16.333 1000.636 1000.678" enable-background="new 15.167 -16.333 1000.636 1000.678" xml:space="preserve">
<g id="XMLID_810_">
	<path id="XMLID_832_" fill="#D16666" d="M815.025,478.781L931.35,362.444c9.912-9.912,9.912-25.98,0-35.882
		c-9.912-9.912-25.97-9.912-35.882,0L779.138,442.901L662.809,326.582c-9.912-9.912-25.97-9.912-35.882,0
		c-9.912,9.912-9.912,25.98,0,35.882l116.334,116.322L626.947,595.112c-9.912,9.912-9.912,25.98,0,35.882
		c4.956,4.956,11.439,7.434,17.941,7.434s12.985-2.478,17.941-7.434l116.314-116.329l116.324,116.309
		c4.956,4.956,11.439,7.434,17.941,7.434s12.985-2.478,17.941-7.434c9.912-9.912,9.912-25.98,0-35.882L815.025,478.781z"/>
	<path id="XMLID_840_" fill="#D16666" d="M540.473,66.764l-0.04-0.02c-18.437-8.158-40.065-4.698-54.973,8.822l-218.96,198.303
		H159.012c-38.757,0-70.277,31.531-70.277,70.277V613.41c0,38.747,31.521,70.277,70.277,70.277h107.489l218.94,198.303
		c9.555,8.663,21.846,13.193,34.276,13.193c7.018,0,14.075-1.437,20.736-4.391c18.456-8.178,30.371-26.505,30.371-46.696V113.46
		C570.824,93.289,558.91,74.951,540.473,66.764z M520.074,113.46l-0.555,730.924L286.087,632.937H159.012
		c-10.765,0-19.527-8.762-19.527-19.527V344.146c0-10.765,8.762-19.527,19.527-19.527h127.075l233.452-211.447
		c0.06-0.069,0.178-0.129,0.357-0.02l10.269-23.204L520.074,113.46z"/>
</g>
</svg>
