<?xml version="1.0" encoding="utf-8"?>
<!-- Generator: Adobe Illustrator 19.0.0, SVG Export Plug-In . SVG Version: 6.00 Build 0)  -->
<svg version="1.1" id="图形" xmlns="http://www.w3.org/2000/svg" xmlns:xlink="http://www.w3.org/1999/xlink" x="0px" y="0px"
	 viewBox="15.167 -16.333 1000.636 1000.678" enable-background="new 15.167 -16.333 1000.636 1000.678" xml:space="preserve">
<path id="XMLID_852_" fill="#474747" d="M862.915,119.266H164.623c-45.735,0-82.925,37.2-82.925,82.915V755.37
	c0,45.725,37.19,82.925,82.925,82.925h698.293c45.715,0,82.905-37.2,82.905-82.925V202.181
	C945.821,156.466,908.63,119.266,862.915,119.266z M132.448,751.762V296.915l227.418,227.43L132.448,751.762z M395.746,560.228
	l59.383,59.385c15.661,15.651,36.497,24.275,58.64,24.275s42.979-8.624,58.621-24.285l59.379-59.379l227.321,227.321H168.429
	L395.746,560.228z M667.651,524.342l227.42-227.42v454.84L667.651,524.342z M164.623,170.016h698.293
	c17.723,0,32.155,14.432,32.155,32.165v22.976L536.508,583.721c-12.133,12.182-33.325,12.142-45.497,0L132.448,225.148v-22.967
	C132.448,184.449,146.88,170.016,164.623,170.016z"/>
</svg>
