<?xml version="1.0" encoding="utf-8"?>
<!-- Generator: Adobe Illustrator 17.0.0, SVG Export Plug-In . SVG Version: 6.00 Build 0)  -->
<!DOCTYPE svg PUBLIC "-//W3C//DTD SVG 1.1//EN" "http://www.w3.org/Graphics/SVG/1.1/DTD/svg11.dtd">
<svg version="1.1" id="图形" xmlns="http://www.w3.org/2000/svg" xmlns:xlink="http://www.w3.org/1999/xlink" x="0px" y="0px"
	 width="1000.636px" height="1000.678px" viewBox="15.167 -16.333 1000.636 1000.678"
	 enable-background="new 15.167 -16.333 1000.636 1000.678" xml:space="preserve">
<path d="M514.718,44.319c-242.196,0-438.539,196.343-438.539,438.545c0,242.196,196.343,438.539,438.539,438.539
	c242.202,0,438.545-196.343,438.545-438.539C953.263,240.662,756.92,44.319,514.718,44.319z M732.45,700.59
	c-5.028,5.028-11.617,7.542-18.201,7.542c-6.589,0-13.179-2.514-18.206-7.542L488.982,493.523V231.659
	c0-14.226,11.534-25.748,25.742-25.748c14.214,0,25.748,11.522,25.748,25.748v240.546L732.45,664.183
	C742.505,674.227,742.505,690.54,732.45,700.59z"/>
</svg>
