<?xml version="1.0" encoding="utf-8"?>
<!-- Generator: Adobe Illustrator 17.0.0, SVG Export Plug-In . SVG Version: 6.00 Build 0)  -->
<!DOCTYPE svg PUBLIC "-//W3C//DTD SVG 1.1//EN" "http://www.w3.org/Graphics/SVG/1.1/DTD/svg11.dtd">
<svg version="1.1" id="图形" xmlns="http://www.w3.org/2000/svg" xmlns:xlink="http://www.w3.org/1999/xlink" x="0px" y="0px"
	 width="1000.636px" height="1000.678px" viewBox="15.167 -16.333 1000.636 1000.678"
	 enable-background="new 15.167 -16.333 1000.636 1000.678" xml:space="preserve">
<path d="M943.834,825.058l-41.073,41.061c-16.776,16.788-37.624,30.186-62.108,39.899c-26.913,10.746-57.145,15.896-89.454,15.896
	c-124.051,0.059-320.076-115.933-449.981-245.838C137.455,512.303,39.331,286.949,91.186,156.598
	c7.579-19.087,18.102-36.052,30.62-50.951l-0.035-0.07l2.663-4.306c1.185-1.947,2.569-3.707,4.13-5.268l43.102-43.067
	c10.922-11.016,28.672-11.016,39.594,0l19.404,19.393L399.729,241.43c10.922,10.887,10.922,28.614-0.035,39.559l-45.202,45.261
	l-30.737,30.749c0,0-16.084,103.098,98.417,217.588c114.501,114.443,217.13,98.851,217.13,98.851l76.409-76.432
	c10.922-10.946,28.696-10.946,39.583,0l188.505,188.435C954.744,796.398,954.744,814.113,943.834,825.058z"/>
</svg>
