<?xml version="1.0" encoding="utf-8"?>
<!-- Generator: Adobe Illustrator 19.0.0, SVG Export Plug-In . SVG Version: 6.00 Build 0)  -->
<svg version="1.1" id="图形" xmlns="http://www.w3.org/2000/svg" xmlns:xlink="http://www.w3.org/1999/xlink" x="0px" y="0px"
	 viewBox="15.167 -16.333 1000.636 1000.678" enable-background="new 15.167 -16.333 1000.636 1000.678" xml:space="preserve">
<g>
	<path fill="#474747" d="M513.759,43.715c-239.894,0-435.065,195.171-435.065,435.065s195.171,435.065,435.065,435.065
		s435.065-195.171,435.065-435.065S753.654,43.715,513.759,43.715z M513.759,863.095c-211.902,0-384.315-172.402-384.315-384.315
		S301.857,94.466,513.759,94.466s384.315,172.402,384.315,384.315S725.662,863.095,513.759,863.095z"/>
	<path fill="#474747" d="M671.085,585.396c-11.994-7.176-27.595-3.231-34.792,8.802c-26.069,43.752-71.883,69.871-122.534,69.871
		c-50.631,0-96.445-26.119-122.554-69.871c-7.176-12.053-22.739-15.998-34.792-8.802c-12.033,7.186-15.959,22.758-8.782,34.792
		c34.812,58.373,98.468,94.632,166.128,94.632c67.68,0,131.356-36.259,166.148-94.632
		C687.064,608.144,683.138,592.572,671.085,585.396z"/>
	<circle fill="#474747" cx="352.409" cy="424.712" r="42.55"/>
	<circle fill="#474747" cx="677.211" cy="424.712" r="42.551"/>
</g>
</svg>
