<?xml version="1.0" encoding="utf-8"?>
<!-- Generator: Adobe Illustrator 17.0.0, SVG Export Plug-In . SVG Version: 6.00 Build 0)  -->
<!DOCTYPE svg PUBLIC "-//W3C//DTD SVG 1.1//EN" "http://www.w3.org/Graphics/SVG/1.1/DTD/svg11.dtd">
<svg version="1.1" id="图形" xmlns="http://www.w3.org/2000/svg" xmlns:xlink="http://www.w3.org/1999/xlink" x="0px" y="0px"
	 width="1000.636px" height="1000.678px" viewBox="15.167 -16.333 1000.636 1000.678"
	 enable-background="new 15.167 -16.333 1000.636 1000.678" xml:space="preserve">
<path d="M515.009,46.58c-240.804,0-435.961,195.187-435.961,435.956c0,240.774,195.157,435.966,435.961,435.966
	c240.738,0,435.961-195.193,435.961-435.966C950.971,241.767,755.747,46.58,515.009,46.58z M513.702,793.335
	c-34.82,0-62.984-28.168-62.984-62.984c0-34.785,28.163-62.984,62.984-62.984c34.815,0,62.984,28.199,62.984,62.984
	C576.685,765.167,548.517,793.335,513.702,793.335z M596.185,325.128c0,0.113-0.031,0.226-0.062,0.456l-0.056,0.2l-0.087,0.451
	l-0.026,0.169l-0.056,0.339l-0.062,0.282c0,0-53.187,247.554-53.213,248.011c0,0,3.662-18.649,0,0.031
	c-3.662,18.68-12.971,28.922-28.922,28.922c-15.977,0-24.363-11.838-29.291-31.025s-51.797-240.456-51.828-240.656
	c0,0-0.026-0.087-0.056-0.2l-0.031-0.195c-0.031-0.144-0.082-0.287-0.082-0.431l-0.056-0.339l-0.056-0.313
	c-0.026-0.082-0.056-0.313-0.056-0.313l-0.056-0.339l-0.056-0.144l-0.087-0.482c0,0-0.031-0.195-0.056-0.282l-0.056-0.313
	c0,0-0.031-0.226-0.087-0.451c0,0,0-0.087-0.026-0.174l-0.031-0.226c0,0-0.082-0.282-0.113-0.426l-0.056-0.339l-0.056-0.318
	l-0.056-0.282l-0.056-0.339l-0.031-0.169l-0.087-0.451l-0.056-0.318c0,0-0.051-0.226-0.051-0.339
	c-1.133-5.509-1.759-11.238-1.759-17.085c0-46.55,37.657-84.243,84.238-84.243c46.576,0,84.243,37.693,84.243,84.243
	C597.945,313.891,597.319,319.62,596.185,325.128z"/>
</svg>
