<?xml version="1.0" encoding="utf-8"?>
<!-- Generator: Adobe Illustrator 17.0.0, SVG Export Plug-In . SVG Version: 6.00 Build 0)  -->
<!DOCTYPE svg PUBLIC "-//W3C//DTD SVG 1.1//EN" "http://www.w3.org/Graphics/SVG/1.1/DTD/svg11.dtd">
<svg version="1.1" id="图形" xmlns="http://www.w3.org/2000/svg" xmlns:xlink="http://www.w3.org/1999/xlink" x="0px" y="0px"
	 width="1000.636px" height="1000.678px" viewBox="15.167 -16.333 1000.636 1000.678"
	 enable-background="new 15.167 -16.333 1000.636 1000.678" xml:space="preserve">
<path d="M932.331,918.55c-12.829-60.388-37.255-162.513-37.255-162.513s-13.05-63.328-33.72-84.916
	c-35.704-37.283-257.49-68.672-266.214-135.514c-2.371-18.161-3.09-49.975-2.418-57.721c18.18-16.398,32.86-37.565,36.393-43.625
	c4.412-7.603,13.453-28.899,20.362-55.348c11.486-1.359,21.899-22.632,29.561-46.072c8.212-25.227,1.992-47.316-9.667-51.385
	c7.978-33.456,14.687-88.006-4.868-131.018c-8.864-19.508,11.555-58.779-25.469-101.59c-31.737,47.64-125.45-28.51-197.696,7.948
	c-29.753,15.015-42.15,37.282-46.616,59.03c-23.802,19.158-29.625,43.49-32.781,58.416c-8.197,38.838-9.453,72.965,1.184,108.42
	c-9.79,6.392-14.354,27.045-6.823,50.179c7.645,23.44,18.073,44.703,29.544,46.072c6.909,26.449,15.967,47.746,20.379,55.348
	c3.757,6.475,20.236,30.214,40.15,46.931h0.839c-0.032,13.064-0.876,40.793-2.651,54.416
	c-8.724,66.843-231.698,97.04-266.214,135.514c-18.625,20.756-68.44,204.404-78.911,247.429H932.331z"/>
</svg>
