<?xml version="1.0" encoding="utf-8"?>
<!-- Generator: Adobe Illustrator 17.0.0, SVG Export Plug-In . SVG Version: 6.00 Build 0)  -->
<!DOCTYPE svg PUBLIC "-//W3C//DTD SVG 1.1//EN" "http://www.w3.org/Graphics/SVG/1.1/DTD/svg11.dtd">
<svg version="1.1" id="图形" xmlns="http://www.w3.org/2000/svg" xmlns:xlink="http://www.w3.org/1999/xlink" x="0px" y="0px"
	 width="1000.636px" height="1000.678px" viewBox="15.167 -16.333 1000.636 1000.678"
	 enable-background="new 15.167 -16.333 1000.636 1000.678" xml:space="preserve">
<g>
	<rect x="568.602" y="314.043" width="385.745" height="56.547"/>
	<path d="M76.483,922.908h440.101V40.953H76.483V922.908z M349.135,151.416h108.71v108.71h-108.71V151.416z M349.135,368.837h108.71
		v108.71h-108.71V368.837z M349.135,586.257h108.71v108.71h-108.71V586.257z M135.221,151.416h108.71v108.71h-108.71V151.416z
		 M135.221,368.837h108.71v108.71h-108.71V368.837z M135.221,586.257h108.71v108.71h-108.71V586.257z"/>
	<polygon points="568.602,922.908 680.819,922.908 680.819,696.721 842.131,696.721 842.131,922.908 954.347,922.908 
		954.347,423.192 568.602,423.192 	"/>
</g>
</svg>
